<?xml version="1.0" encoding="utf-8"?>
<!-- Generator: Adobe Illustrator 16.0.4, SVG Export Plug-In . SVG Version: 6.00 Build 0)  -->
<!DOCTYPE svg PUBLIC "-//W3C//DTD SVG 1.1//EN" "http://www.w3.org/Graphics/SVG/1.1/DTD/svg11.dtd">
<svg version="1.1" id="Layer_1" xmlns="http://www.w3.org/2000/svg" xmlns:xlink="http://www.w3.org/1999/xlink" x="0px" y="0px"
	 width="529.473px" height="524.974px" viewBox="40.743 176.048 529.473 524.974"
	 enable-background="new 40.743 176.048 529.473 524.974" xml:space="preserve">
<g>
	<path fill="#0066CC" d="M305.48,196.749c-133.566,0-241.787,108.267-241.787,241.786S171.96,680.321,305.48,680.321
		c133.52,0,241.785-108.268,241.785-241.786C547.267,305.015,439.047,196.749,305.48,196.749z"/>
	<circle fill="#002352" cx="305.48" cy="438.535" r="222.443"/>
	<g>
		<g opacity="0.3">
			<g>
				<path fill="#FFFFFF" d="M345.021,580.981c-0.613,0-1.227-0.071-1.77-0.294c-21.717-6.382-35.877-15.041-50.581-30.814
					c-18.993-20.397-29.476-47.619-29.476-76.602c0-23.845,18.789-43.216,41.935-43.216s41.934,19.371,41.934,43.216
					c0,15.703,12.73,28.541,28.318,28.541c15.59,0,28.319-12.765,28.319-28.541c0-55.319-44.249-100.297-98.64-100.297
					c-38.735,0-74.065,23.186-89.995,59.137c-5.311,11.887-7.966,25.755-7.966,41.16c0,11.447,0.953,29.497,9.055,52.901
					c1.294,3.814-0.477,7.998-4.018,9.465c-3.54,1.396-7.42-0.513-8.78-4.328c-6.673-19.296-9.939-38.227-9.939-58.038
					c0-17.606,3.131-33.604,9.326-47.47c18.176-40.94,58.34-67.428,102.249-67.428c61.879,0,112.254,51.58,112.254,114.972
					c0,23.846-18.855,43.217-41.934,43.217c-23.077,0-41.936-19.371-41.936-43.217c0-15.701-12.729-28.541-28.316-28.541
					c-15.591,0-28.32,12.766-28.32,28.541c0,25.021,9.055,48.571,25.461,66.181c12.866,13.794,25.393,21.425,44.588,27.074
					c3.608,1.102,5.787,5.137,4.768,9.024C350.738,578.854,348.016,580.981,345.021,580.981L345.021,580.981L345.021,580.981z
					 M372.453,550.679c-16.201,0-30.428-4.403-42.205-12.985c-20.219-14.821-32.336-38.888-32.336-64.422
					c0-4.035,3.062-7.337,6.809-7.337c3.744,0,6.807,3.302,6.807,7.337c0,20.618,9.871,40.137,26.414,52.242
					c9.599,7.043,20.898,10.492,34.513,10.492c3.269,0,8.781-0.368,14.228-1.396c3.678-0.73,7.218,1.982,7.897,5.945
					c0.681,3.961-1.838,7.776-5.516,8.511C381.1,550.605,374.359,550.679,372.453,550.679L372.453,550.679L372.453,550.679z
					 M274.903,577.825c-1.771,0-3.474-0.733-4.833-2.2c-11.777-12.84-18.177-20.983-27.366-38.665
					c-9.396-18.05-14.364-40.135-14.364-63.761c0-43.582,34.582-79.095,77.129-79.095s77.127,35.438,77.127,79.095
					c0,4.034-3.062,7.337-6.807,7.337s-6.808-3.303-6.808-7.337c0-35.513-28.454-64.421-63.513-64.421
					c-34.992,0-63.515,28.908-63.515,64.421c0,21.131,4.356,40.646,12.594,56.567c8.781,16.876,14.636,24.141,25.119,35.514
					c2.655,2.86,2.655,7.558-0.068,10.345C278.374,577.167,276.604,577.825,274.903,577.825L274.903,577.825L274.903,577.825z
					 M189.742,400.782c-1.361,0-2.724-0.44-3.949-1.321c-3.062-2.349-3.812-6.896-1.633-10.197
					c13.479-20.545,30.701-36.686,51.124-48.059c42.818-23.847,97.552-23.919,140.438-0.146
					c20.354,11.299,37.51,27.294,51.057,47.69c2.178,3.302,1.497,7.851-1.566,10.199c-3.062,2.348-7.353,1.612-9.529-1.688
					c-12.253-18.489-27.774-33.016-46.154-43.141c-39.075-21.646-88.974-21.571-127.979,0.146
					c-18.449,10.272-34.038,24.874-46.223,43.509C193.961,399.756,191.851,400.782,189.742,400.782L189.742,400.782L189.742,400.782
					z M384.571,323.743c-1.09,0-2.111-0.293-3.131-0.808c-26.073-14.526-48.743-20.764-75.837-20.764
					c-27.025,0-52.484,6.971-75.834,20.69c-3.336,1.908-7.42,0.66-9.258-2.935c-1.77-3.595-0.612-7.998,2.723-9.979
					c25.392-14.895,53.099-22.451,82.371-22.451c28.999,0,54.324,6.896,82.097,22.378c3.337,1.834,4.63,6.31,2.929,9.904
					C389.403,322.275,387.021,323.743,384.571,323.743L384.571,323.743L384.571,323.743z"/>
			</g>
		</g>
		<g>
			<path fill="#FFFFFF" d="M223.234,309.915c-3.335,1.98-4.492,6.384-2.723,9.979c1.838,3.596,5.922,4.842,9.258,2.936
				c23.313-13.699,48.73-20.667,75.71-20.689v-14.674C276.254,287.488,248.589,295.043,223.234,309.915z"/>
			<path fill="#FFFFFF" d="M235.283,341.172c-20.422,11.373-37.646,27.514-51.124,48.059c-2.179,3.302-1.43,7.851,1.633,10.197
				c1.226,0.881,2.587,1.321,3.949,1.321c2.108,0,4.22-1.026,5.582-3.008c12.186-18.637,27.773-33.237,46.223-43.511
				c19.494-10.854,41.708-16.301,63.934-16.333v-14.656C281.083,323.269,256.693,329.248,235.283,341.172z"/>
			<path fill="#FFFFFF" d="M305.469,394.073c-42.547,0-77.129,35.512-77.129,79.094c0,23.627,4.97,45.711,14.364,63.762
				c9.188,17.682,15.589,25.824,27.366,38.664c1.36,1.467,3.062,2.201,4.833,2.201c1.701,0,3.471-0.658,4.695-2.201
				c2.725-2.787,2.725-7.482,0.068-10.344c-10.483-11.373-16.338-18.638-25.119-35.515c-8.236-15.92-12.594-35.438-12.594-56.567
				c0-35.512,28.522-64.42,63.515-64.42c0.004,0,0.008,0.001,0.011,0.001v-14.675C305.477,394.073,305.473,394.073,305.469,394.073z
				"/>
			<path fill="#FFFFFF" d="M304.992,358.341c-43.908,0-84.072,26.488-102.249,67.428c-6.195,13.866-9.326,29.862-9.326,47.471
				c0,19.812,3.267,38.741,9.939,58.038c1.36,3.814,5.241,5.724,8.78,4.328c3.541-1.467,5.312-5.649,4.018-9.465
				c-8.102-23.404-9.055-41.455-9.055-52.902c0-15.405,2.655-29.273,7.966-41.159c15.93-35.952,51.26-59.138,89.995-59.138
				c0.141,0,0.279,0.005,0.419,0.007v-14.602C305.316,358.346,305.154,358.341,304.992,358.341z"/>
			<path fill="#FFFFFF" d="M297.912,473.239c0,11.965,2.66,23.604,7.566,34.125v-41.412c-0.25-0.031-0.502-0.05-0.76-0.05
				C300.976,465.902,297.912,469.203,297.912,473.239z"/>
			<path fill="#FFFFFF" d="M302.201,539.494c-16.406-17.609-25.461-41.162-25.461-66.183c0-15.774,12.729-28.541,28.32-28.541
				c0.141,0,0.279,0.009,0.419,0.012V430.03c-0.118,0-0.233-0.009-0.353-0.009c-23.145,0-41.934,19.371-41.934,43.216
				c0,28.982,10.482,56.203,29.476,76.603c4.249,4.557,8.456,8.504,12.81,11.992v-18.968
				C304.387,541.78,303.295,540.666,302.201,539.494z"/>
		</g>
		<line fill="none" stroke="#FFFFFF" stroke-width="2" stroke-miterlimit="10" x1="305.48" y1="259.748" x2="305.48" y2="608.991"/>
	</g>
</g>
</svg>
