<svg xmlns="http://www.w3.org/2000/svg" viewBox="0 0 951.12 775.07"><defs><style>.cls-1{fill:#fff;}.cls-2{fill:#242828;}.cls-3{fill:#00e8b5;}</style></defs><title>Asset 44</title><g id="Layer_2" data-name="Layer 2"><g id="Layer_1-2" data-name="Layer 1"><circle class="cls-1" cx="479.43" cy="250" r="250"/><polygon class="cls-2" points="432.76 110 432.76 203.33 386.09 250 386.09 156.67 432.76 110"/><path class="cls-2" d="M572.76,296.67a93.34,93.34,0,0,1-186.67,0V250h46.67v46.67a46.67,46.67,0,0,0,93.33,0Z"/><polygon class="cls-3" points="572.76 203.33 526.09 250 386.09 250 432.76 203.33 572.76 203.33"/><path class="cls-1" d="M39.78,773.45v-104H0V646.55H107.64v22.86H67.86v104Z"/><path class="cls-1" d="M123.66,769.22a39.76,39.76,0,0,1-16.38-16q-5.76-10.35-5.76-24.39t5.76-24.39a39.19,39.19,0,0,1,16.38-15.93q10.62-5.58,24.66-5.58T173,688.49a39.19,39.19,0,0,1,16.38,15.93q5.76,10.35,5.76,24.39t-5.76,24.39a39.76,39.76,0,0,1-16.38,16q-10.62,5.67-24.66,5.67T123.66,769.22Zm44.46-40.41q0-12.78-5.13-19.08t-14.67-6.3q-19.8,0-19.8,25.38t19.8,25.38Q168.12,754.19,168.12,728.81Z"/><path class="cls-1" d="M343.08,692.09q7.38,9.18,7.38,28.08v53.28H323.28V721.07q0-9-2.79-13t-9.45-4q-7.74,0-12.06,5.4t-4.32,15.12v48.78H267.48V721.07q0-9-2.79-13t-9.45-4q-7.74,0-12.06,5.4t-4.32,15.12v48.78H211.68V685.07h26.46V697a27.64,27.64,0,0,1,11.07-10.44,34.06,34.06,0,0,1,15.93-3.6q19.62,0,26.28,16.38a31.66,31.66,0,0,1,12.06-12,33.93,33.93,0,0,1,17.1-4.41Q335.7,682.91,343.08,692.09Z"/><path class="cls-1" d="M388.8,769.22a39.76,39.76,0,0,1-16.38-16q-5.76-10.35-5.76-24.39t5.76-24.39a39.19,39.19,0,0,1,16.38-15.93q10.62-5.58,24.66-5.58t24.66,5.58a39.19,39.19,0,0,1,16.38,15.93q5.76,10.35,5.76,24.39T454.5,753.2a39.76,39.76,0,0,1-16.38,16q-10.62,5.67-24.66,5.67T388.8,769.22Zm44.46-40.41q0-12.78-5.13-19.08t-14.67-6.3q-19.8,0-19.8,25.38t19.8,25.38Q433.26,754.19,433.26,728.81Z"/><path class="cls-1" d="M505,767a54.53,54.53,0,0,1-22-22.86q-7.65-14.76-7.65-34.2t7.65-34.2a54,54,0,0,1,22-22.77q14.31-8,33.57-8a75.23,75.23,0,0,1,24.12,3.87,51.47,51.47,0,0,1,18.9,10.71l-9,20a60.63,60.63,0,0,0-16.47-9.18,50.9,50.9,0,0,0-17-2.88q-16.92,0-26,10.8T504,709.91q0,20.88,9.09,31.77t26,10.89a50.9,50.9,0,0,0,17-2.88,60.63,60.63,0,0,0,16.47-9.18l9,20a51.47,51.47,0,0,1-18.9,10.71,75.23,75.23,0,0,1-24.12,3.87Q519.3,775.07,505,767Z"/><path class="cls-1" d="M677.88,692.18q7.74,9.27,7.74,28v53.28H658.44v-52q0-9-3.33-13.14t-10.35-4.14q-8.46,0-13.59,5.4T626,724v49.5H598.86V646.55H626v50.22a30.15,30.15,0,0,1,12-10.35,37.07,37.07,0,0,1,16.29-3.51Q670.14,682.91,677.88,692.18Z"/><path class="cls-1" d="M795.42,685.07v88.38h-27V760.31A27.68,27.68,0,0,1,757.17,771a34.58,34.58,0,0,1-16.47,3.87,36.23,36.23,0,0,1-34.11-21.51q-5-10.35-5-24a56.29,56.29,0,0,1,5-24.21,38.81,38.81,0,0,1,13.86-16.38,36.07,36.07,0,0,1,20.25-5.85,34.58,34.58,0,0,1,16.47,3.87,27.68,27.68,0,0,1,11.25,10.71V685.07Zm-32.13,62.64q5.13-6.48,5.13-18.72t-5.13-18.81q-5.13-6.57-14.67-6.57t-14.76,6.75q-5.22,6.75-5.22,19,0,12.06,5.22,18.45t14.76,6.39Q758.16,754.19,763.29,747.71Z"/><path class="cls-1" d="M815.4,642.59h29.16V668H815.4Zm.9,130.86V685.07h27.18v88.38Z"/><path class="cls-1" d="M943.38,692.18q7.73,9.27,7.74,28v53.28H923.93v-52q0-9-3.32-13.14t-10.36-4.14q-8.46,0-13.58,5.4T891.54,724v49.5H864.36V685.07h26.46v12.6a30.87,30.87,0,0,1,12.14-11,36.75,36.75,0,0,1,16.83-3.78Q935.63,682.91,943.38,692.18Z"/></g></g></svg>